<svg width="36" height="37" viewBox="0 0 36 37" fill="none" xmlns="http://www.w3.org/2000/svg">
<path d="M34.5 36.5H35V36V34.1667C35 30.6304 33.5952 27.2391 31.0948 24.7386C28.5943 22.2381 25.2029 20.8333 21.6667 20.8333H14.3333C10.7971 20.8333 7.40573 22.2381 4.90524 24.7386C2.40476 27.2391 1 30.6304 1 34.1667V36V36.5H1.5H5.16667H5.66667V36V34.1667C5.66667 31.8681 6.57976 29.6637 8.20507 28.0384C9.83039 26.4131 12.0348 25.5 14.3333 25.5H21.6667C23.9652 25.5 26.1696 26.4131 27.7949 28.0384C29.4202 29.6637 30.3333 31.8681 30.3333 34.1667V36V36.5H30.8333H34.5ZM18 0.666656C16.0881 0.666656 14.2192 1.2336 12.6295 2.29578C11.0398 3.35797 9.80081 4.8677 9.06916 6.63405C8.33752 8.4004 8.14609 10.344 8.51908 12.2192C8.89207 14.0943 9.81273 15.8168 11.1646 17.1687C12.5165 18.5206 14.239 19.4413 16.1141 19.8142C17.9893 20.1872 19.9329 19.9958 21.6993 19.2642C23.4656 18.5325 24.9754 17.2935 26.0375 15.7038C27.0997 14.1142 27.6667 12.2452 27.6667 10.3333C27.6667 7.76956 26.6482 5.31081 24.8354 3.49796C23.0225 1.68511 20.5638 0.666656 18 0.666656ZM18 15.3333C17.0111 15.3333 16.0444 15.0401 15.2221 14.4907C14.3999 13.9413 13.759 13.1604 13.3806 12.2467C13.0022 11.3331 12.9031 10.3278 13.0961 9.35787C13.289 8.38797 13.7652 7.49705 14.4645 6.79779C15.1637 6.09853 16.0546 5.62232 17.0245 5.4294C17.9945 5.23647 18.9998 5.33549 19.9134 5.71393C20.827 6.09236 21.6079 6.73323 22.1573 7.55547C22.7068 8.37772 23 9.34442 23 10.3333C23 11.6594 22.4732 12.9312 21.5355 13.8689C20.5979 14.8065 19.3261 15.3333 18 15.3333Z" fill="black" stroke="black"/>
</svg>
